<svg width="52" height="52" viewBox="0 0 52 52" fill="none" xmlns="http://www.w3.org/2000/svg">
<g filter="url(#filter0_d_301_87)">
<rect x="4" width="44" height="44" rx="10" fill="#033325"/>
</g>
<g filter="url(#filter1_i_301_87)">
<path fill-rule="evenodd" clip-rule="evenodd" d="M20.4522 7.69231C20.9249 6.69385 21.943 6 23.1232 6H29.8768C31.0553 6 32.0734 6.69385 32.5479 7.69231C33.701 7.70246 34.601 7.75492 35.4046 8.06969C36.364 8.44584 37.1984 9.0851 37.8123 9.91431C38.4319 10.7486 38.7224 11.8215 39.1225 13.2955L39.185 13.5257L40.1811 17.1929C40.8459 17.5279 41.4284 18.0064 41.8864 18.5942C42.9366 19.9429 43.1223 21.5489 42.9366 23.3902C42.7543 25.1772 42.1937 27.428 41.4913 30.2457L41.4457 30.4234C41.0017 32.2054 40.6404 33.6523 40.2132 34.7811C39.7641 35.9589 39.1968 36.9235 38.2597 37.6563C37.3244 38.3891 36.2522 38.7055 35.0045 38.8578C33.8074 39 32.3199 39 30.488 39H22.512C20.6801 39 19.1909 39 17.9955 38.8562C16.7461 38.7072 15.6757 38.3891 14.7386 37.6546C13.8032 36.9235 13.2359 35.9589 12.7868 34.7811C12.358 33.6523 11.9983 32.2054 11.5543 30.4234L11.5087 30.2457C10.8063 27.428 10.2441 25.1772 10.0634 23.3918C9.87769 21.5472 10.0634 19.9429 11.1119 18.5942C11.5897 17.9815 12.1621 17.528 12.8172 17.1929L13.8134 13.5257L13.8775 13.2955C14.2777 11.8215 14.5681 10.7486 15.1877 9.91262C15.8018 9.08403 16.6362 8.44538 17.5954 8.06969C18.3991 7.75492 19.2973 7.70077 20.4522 7.69231ZM20.4538 10.2342C19.3361 10.246 18.8887 10.2883 18.5172 10.4338C18.0005 10.6364 17.5512 10.9806 17.2206 11.4272C16.9234 11.8283 16.7478 12.3885 16.2582 14.1942L15.6605 16.3891C17.413 16.1538 19.6755 16.1538 22.485 16.1538H30.5133C33.3245 16.1538 35.587 16.1538 37.3379 16.3891L36.7419 14.1942C36.2505 12.3885 36.0766 11.8283 35.7795 11.4272C35.4489 10.9806 34.9995 10.6364 34.4828 10.4338C34.1113 10.2883 33.6622 10.246 32.5445 10.2342C32.3045 10.7396 31.9266 11.1665 31.4544 11.4654C30.9823 11.7643 30.4353 11.923 29.8768 11.9231H23.1232C22.5648 11.923 22.0178 11.7643 21.5456 11.4654C21.0735 11.1665 20.6955 10.7396 20.4555 10.2342H20.4538ZM23.1232 8.53846C23.0113 8.53846 22.9039 8.58304 22.8247 8.66238C22.7456 8.74172 22.7011 8.84933 22.7011 8.96154C22.7011 9.07375 22.7456 9.18136 22.8247 9.2607C22.9039 9.34004 23.0113 9.38462 23.1232 9.38462H29.8768C29.9888 9.38462 30.0961 9.34004 30.1753 9.2607C30.2544 9.18136 30.2989 9.07375 30.2989 8.96154C30.2989 8.84933 30.2544 8.74172 30.1753 8.66238C30.0961 8.58304 29.9888 8.53846 29.8768 8.53846H23.1232ZM15.8631 18.9225C14.3266 19.1458 13.582 19.552 13.111 20.1578C12.6382 20.762 12.4272 21.5828 12.5842 23.1329C12.7446 24.7169 13.2596 26.7883 13.9923 29.7329C14.4617 31.608 14.7859 32.9077 15.1573 33.8791C15.5119 34.8166 15.8614 35.3125 16.3004 35.656C16.7377 35.9978 17.3016 36.2162 18.2978 36.3363C19.3277 36.4598 20.6615 36.4615 22.593 36.4615H30.4103C32.3402 36.4615 33.6774 36.4598 34.7056 36.3363C35.7018 36.2178 36.2657 35.9978 36.703 35.656C37.142 35.3125 37.4898 34.8166 37.8478 33.8791C38.2158 32.9077 38.5417 31.608 39.0094 29.7329C39.7438 26.7883 40.2588 24.7169 40.4175 23.1329C40.5762 21.5828 40.3635 20.7603 39.8924 20.1562C39.4213 19.552 38.6768 19.1458 37.1386 18.9225C35.5684 18.6957 33.4377 18.6923 30.4103 18.6923H22.593C19.5657 18.6923 17.435 18.6957 15.8648 18.9225H15.8631Z" fill="#F4FFFC"/>
</g>
<defs>
<filter id="filter0_d_301_87" x="0" y="0" width="52" height="52" filterUnits="userSpaceOnUse" color-interpolation-filters="sRGB">
<feFlood flood-opacity="0" result="BackgroundImageFix"/>
<feColorMatrix in="SourceAlpha" type="matrix" values="0 0 0 0 0 0 0 0 0 0 0 0 0 0 0 0 0 0 127 0" result="hardAlpha"/>
<feOffset dy="4"/>
<feGaussianBlur stdDeviation="2"/>
<feComposite in2="hardAlpha" operator="out"/>
<feColorMatrix type="matrix" values="0 0 0 0 0 0 0 0 0 0 0 0 0 0 0 0 0 0 0.25 0"/>
<feBlend mode="normal" in2="BackgroundImageFix" result="effect1_dropShadow_301_87"/>
<feBlend mode="normal" in="SourceGraphic" in2="effect1_dropShadow_301_87" result="shape"/>
</filter>
<filter id="filter1_i_301_87" x="10" y="6" width="33" height="37" filterUnits="userSpaceOnUse" color-interpolation-filters="sRGB">
<feFlood flood-opacity="0" result="BackgroundImageFix"/>
<feBlend mode="normal" in="SourceGraphic" in2="BackgroundImageFix" result="shape"/>
<feColorMatrix in="SourceAlpha" type="matrix" values="0 0 0 0 0 0 0 0 0 0 0 0 0 0 0 0 0 0 127 0" result="hardAlpha"/>
<feOffset dy="4"/>
<feGaussianBlur stdDeviation="2"/>
<feComposite in2="hardAlpha" operator="arithmetic" k2="-1" k3="1"/>
<feColorMatrix type="matrix" values="0 0 0 0 0 0 0 0 0 0 0 0 0 0 0 0 0 0 0.25 0"/>
<feBlend mode="normal" in2="shape" result="effect1_innerShadow_301_87"/>
</filter>
</defs>
</svg>
