<svg width="35" height="35" viewBox="0 0 35 35" fill="none" xmlns="http://www.w3.org/2000/svg">
<rect width="35" height="35" rx="10" fill="#C7E3C7"/>
<path fill-rule="evenodd" clip-rule="evenodd" d="M13.6514 8.07692C13.9522 7.44154 14.6001 7 15.3511 7H19.6489C20.3988 7 21.0467 7.44154 21.3486 8.07692C22.0825 8.08338 22.6552 8.11677 23.1666 8.31708C23.7771 8.55645 24.3081 8.96324 24.6987 9.49092C25.0931 10.0218 25.2779 10.7046 25.5325 11.6426L25.5723 11.7891L26.2062 14.1228C26.6292 14.3359 26.9999 14.6405 27.2914 15.0145C27.9597 15.8728 28.0778 16.8948 27.9597 18.0665C27.8436 19.2037 27.4869 20.636 27.0399 22.4291L27.0109 22.5422C26.7283 23.6762 26.4984 24.5969 26.2266 25.3152C25.9408 26.0648 25.5798 26.6786 24.9835 27.1449C24.3882 27.6112 23.706 27.8126 22.9119 27.9095C22.1502 28 21.2036 28 20.0378 28H14.9622C13.7964 28 12.8488 28 12.0881 27.9085C11.293 27.8137 10.6118 27.6112 10.0155 27.1438C9.42023 26.6786 9.05922 26.0648 8.77342 25.3152C8.50052 24.5969 8.27166 23.6762 7.98908 22.5422L7.96007 22.4291C7.51311 20.636 7.15532 19.2037 7.04036 18.0675C6.92217 16.8937 7.04036 15.8728 7.70758 15.0145C8.01165 14.6246 8.37588 14.336 8.79276 14.1228L9.42668 11.7891L9.46751 11.6426C9.72215 10.7046 9.90695 10.0218 10.3013 9.48985C10.6921 8.96256 11.223 8.55615 11.8334 8.31708C12.3449 8.11677 12.9165 8.08231 13.6514 8.07692ZM13.6524 9.69446C12.9412 9.702 12.6564 9.72892 12.4201 9.82154C12.0912 9.95043 11.8053 10.1695 11.5949 10.4537C11.4058 10.7089 11.2941 11.0654 10.9825 12.2145L10.6021 13.6112C11.7174 13.4615 13.1571 13.4615 14.945 13.4615H20.0539C21.8429 13.4615 23.2826 13.4615 24.3968 13.6112L24.0175 12.2145C23.7049 11.0654 23.5942 10.7089 23.4051 10.4537C23.1947 10.1695 22.9088 9.95043 22.5799 9.82154C22.3436 9.72892 22.0578 9.702 21.3465 9.69446C21.1938 10.0161 20.9533 10.2878 20.6528 10.478C20.3523 10.6682 20.0043 10.7692 19.6489 10.7692H15.3511C14.9958 10.7692 14.6477 10.6682 14.3472 10.478C14.0468 10.2878 13.8062 10.0161 13.6535 9.69446H13.6524ZM15.3511 8.61538C15.2799 8.61538 15.2116 8.64375 15.1612 8.69424C15.1108 8.74473 15.0825 8.81321 15.0825 8.88462C15.0825 8.95602 15.1108 9.0245 15.1612 9.07499C15.2116 9.12548 15.2799 9.15385 15.3511 9.15385H19.6489C19.7201 9.15385 19.7884 9.12548 19.8388 9.07499C19.8892 9.0245 19.9175 8.95602 19.9175 8.88462C19.9175 8.81321 19.8892 8.74473 19.8388 8.69424C19.7884 8.64375 19.7201 8.61538 19.6489 8.61538H15.3511ZM10.731 15.2234C9.75331 15.3655 9.27948 15.624 8.97972 16.0095C8.67887 16.394 8.54457 16.9163 8.64449 17.9028C8.74656 18.9108 9.07427 20.2289 9.54057 22.1028C9.83927 23.296 10.0456 24.1231 10.2819 24.7412C10.5076 25.3378 10.73 25.6534 11.0093 25.872C11.2876 26.0895 11.6465 26.2285 12.2804 26.3049C12.9358 26.3835 13.7846 26.3846 15.0138 26.3846H19.9884C21.2165 26.3846 22.0674 26.3835 22.7218 26.3049C23.3557 26.2295 23.7145 26.0895 23.9928 25.872C24.2722 25.6534 24.4935 25.3378 24.7213 24.7412C24.9555 24.1231 25.1629 23.296 25.4605 22.1028C25.9279 20.2289 26.2556 18.9108 26.3566 17.9028C26.4576 16.9163 26.3222 16.3929 26.0224 16.0085C25.7227 15.624 25.2488 15.3655 24.27 15.2234C23.2708 15.0791 21.9149 15.0769 19.9884 15.0769H15.0138C13.0873 15.0769 11.7313 15.0791 10.7321 15.2234H10.731Z" fill="#033325"/>
<path d="M21 17L14 24M14 17L21 24" stroke="#033325" stroke-width="1.5" stroke-linecap="round" stroke-linejoin="round"/>
</svg>
