<svg width="25" height="15" viewBox="0 0 25 15" fill="none" xmlns="http://www.w3.org/2000/svg">
<path d="M12.5 3.33333C11.6759 3.33333 10.8703 3.5777 10.1851 4.03554C9.49992 4.49338 8.96587 5.14413 8.6505 5.90549C8.33514 6.66684 8.25262 7.50462 8.41339 8.31288C8.57417 9.12113 8.971 9.86356 9.55372 10.4463C10.1364 11.029 10.8789 11.4258 11.6871 11.5866C12.4954 11.7474 13.3332 11.6649 14.0945 11.3495C14.8559 11.0341 15.5066 10.5001 15.9645 9.81488C16.4223 9.12967 16.6667 8.32409 16.6667 7.5C16.6667 6.39493 16.2277 5.33512 15.4463 4.55372C14.6649 3.77232 13.6051 3.33333 12.5 3.33333ZM12.5 10C12.0055 10 11.5222 9.85338 11.1111 9.57867C10.7 9.30397 10.3795 8.91352 10.1903 8.45671C10.0011 7.99989 9.95157 7.49723 10.048 7.01227C10.1445 6.52732 10.3826 6.08186 10.7322 5.73223C11.0819 5.3826 11.5273 5.1445 12.0123 5.04804C12.4972 4.95157 12.9999 5.00108 13.4567 5.1903C13.9135 5.37952 14.304 5.69995 14.5787 6.11107C14.8534 6.5222 15 7.00555 15 7.5C15 8.16304 14.7366 8.79893 14.2678 9.26777C13.7989 9.73661 13.163 10 12.5 10ZM24.1667 0H0.833333C0.61232 0 0.400358 0.0877975 0.244078 0.244078C0.0877973 0.400358 0 0.61232 0 0.833333V14.1667C0 14.3877 0.0877973 14.5996 0.244078 14.7559C0.400358 14.9122 0.61232 15 0.833333 15H24.1667C24.3877 15 24.5996 14.9122 24.7559 14.7559C24.9122 14.5996 25 14.3877 25 14.1667V0.833333C25 0.61232 24.9122 0.400358 24.7559 0.244078C24.5996 0.0877975 24.3877 0 24.1667 0ZM19.3385 13.3333H5.66146C5.38167 12.3871 4.86959 11.5259 4.17186 10.8281C3.47412 10.1304 2.61291 9.61833 1.66667 9.33854V5.66146C2.61291 5.38167 3.47412 4.86959 4.17186 4.17186C4.86959 3.47412 5.38167 2.61291 5.66146 1.66667H19.3385C19.6183 2.61291 20.1304 3.47412 20.8281 4.17186C21.5259 4.86959 22.3871 5.38167 23.3333 5.66146V9.33854C22.3871 9.61833 21.5259 10.1304 20.8281 10.8281C20.1304 11.5259 19.6183 12.3871 19.3385 13.3333ZM23.3333 3.89271C22.3338 3.46291 21.5371 2.66621 21.1073 1.66667H23.3333V3.89271ZM3.89271 1.66667C3.46291 2.66621 2.66621 3.46291 1.66667 3.89271V1.66667H3.89271ZM1.66667 11.1073C2.66621 11.5371 3.46291 12.3338 3.89271 13.3333H1.66667V11.1073ZM21.1073 13.3333C21.5371 12.3338 22.3338 11.5371 23.3333 11.1073V13.3333H21.1073Z" fill="#0C6351"/>
</svg>
