<svg width="12" height="12" viewBox="0 0 12 12" fill="none" xmlns="http://www.w3.org/2000/svg">
<path d="M2.76813 3.35767H2.17876C1.86613 3.35767 1.56631 3.48186 1.34525 3.70292C1.12419 3.92398 1 4.2238 1 4.53642V9.84082C1 10.1534 1.12419 10.4533 1.34525 10.6743C1.56631 10.8954 1.86613 11.0196 2.17876 11.0196H7.48316C7.79578 11.0196 8.0956 10.8954 8.31666 10.6743C8.53772 10.4533 8.66191 10.1534 8.66191 9.84082V9.25145" stroke="#0C6351" stroke-width="1.2" stroke-linecap="round" stroke-linejoin="round"/>
<path d="M8.12565 2.17882L9.89378 3.94695M10.7101 3.11298C10.9422 2.88086 11.0726 2.56603 11.0726 2.23776C11.0726 1.90948 10.9422 1.59466 10.7101 1.36253C10.4779 1.13041 10.1631 1 9.83484 1C9.50657 1 9.19174 1.13041 8.95962 1.36253L4 6.30447V8.0726H5.76813L10.7101 3.11298Z" stroke="#0C6351" stroke-width="1.2" stroke-linecap="round" stroke-linejoin="round"/>
</svg>
