<svg width="21" height="21" viewBox="0 0 21 21" fill="none" xmlns="http://www.w3.org/2000/svg">
<path d="M4.35294 5.4707H3.23529C2.64246 5.4707 2.0739 5.70621 1.6547 6.12541C1.2355 6.5446 1 7.11316 1 7.706V17.7648C1 18.3576 1.2355 18.9262 1.6547 19.3454C2.0739 19.7646 2.64246 20.0001 3.23529 20.0001H13.2941C13.8869 20.0001 14.4555 19.7646 14.8747 19.3454C15.2939 18.9262 15.5294 18.3576 15.5294 17.7648V16.6472" stroke="white" stroke-width="2" stroke-linecap="round" stroke-linejoin="round"/>
<path d="M14.4119 3.23541L17.7648 6.58835M19.3128 5.00688C19.753 4.5667 20.0003 3.96969 20.0003 3.34718C20.0003 2.72467 19.753 2.12765 19.3128 1.68747C18.8726 1.24729 18.2756 1 17.6531 1C17.0306 1 16.4336 1.24729 15.9934 1.68747L6.58838 11.0589V14.4119H9.94132L19.3128 5.00688Z" stroke="white" stroke-width="2" stroke-linecap="round" stroke-linejoin="round"/>
</svg>
