<svg width="20" height="20" viewBox="0 0 20 20" fill="none" xmlns="http://www.w3.org/2000/svg">
<path d="M8.33335 13.7502L10.8334 14.5835C10.8334 14.5835 17.0834 13.3335 17.9167 13.3335C18.75 13.3335 18.75 14.1668 17.9167 15.0002C17.0834 15.8335 14.1667 18.3335 11.6667 18.3335C9.16669 18.3335 7.50002 17.0835 5.83335 17.0835H1.66669" stroke="#0C6351" stroke-width="1.5" stroke-linecap="round" stroke-linejoin="round"/>
<path d="M1.66669 12.0835C2.50002 11.2502 4.16669 10.0002 5.83335 10.0002C7.50002 10.0002 11.4584 11.6668 12.0834 12.5002C12.7084 13.3335 10.8334 14.5835 10.8334 14.5835M6.66669 7.50016V4.16683C6.66669 3.94582 6.75448 3.73385 6.91076 3.57757C7.06705 3.42129 7.27901 3.3335 7.50002 3.3335H17.5C17.721 3.3335 17.933 3.42129 18.0893 3.57757C18.2456 3.73385 18.3334 3.94582 18.3334 4.16683V10.8335" stroke="#0C6351" stroke-width="1.5" stroke-linecap="round" stroke-linejoin="round"/>
<path d="M10.4167 3.3335H14.5834V7.0835H10.4167V3.3335Z" stroke="#0C6351" stroke-width="1.5" stroke-linecap="round" stroke-linejoin="round"/>
</svg>
