<svg width="86" height="86" viewBox="0 0 86 86" fill="none" xmlns="http://www.w3.org/2000/svg">
<path d="M82.9592 29.4592C88.1033 24.3154 85.7576 18.3075 82.9592 15.3858L70.6134 3.04062C65.4282 -2.10319 59.4611 0.242391 56.5392 3.04062L49.5433 10.0774H38.8847C31.0657 10.0774 26.5389 14.1924 24.2344 18.9247L5.96262 37.1955V53.6557L3.04078 56.5363C-2.1033 61.7212 0.242404 67.688 3.04078 70.6097L15.3866 82.9549C17.6088 85.177 19.9957 86 22.2591 86C25.1809 86 27.8558 84.5597 29.4608 82.9549L40.572 71.8031H55.3458C62.3417 71.8031 65.8809 67.4411 67.1566 63.1615C71.8069 61.927 74.3583 58.388 75.3871 54.9314C81.7658 53.2854 84.1526 47.2362 84.1526 42.9977V30.6526H81.7246L82.9592 29.4592ZM75.9221 42.9977C75.9221 44.8495 75.1402 47.1128 71.8069 47.1128H67.6916V51.2278C67.6916 53.0796 66.9097 55.3429 63.5763 55.3429H59.4611V59.4579C59.4611 61.3097 58.6792 63.573 55.3458 63.573H37.1975L23.6994 77.0703C22.4237 78.2637 21.6829 77.5642 21.2303 77.1115L8.92561 64.8487C7.73219 63.573 8.43178 62.8323 8.88446 62.3796L14.1932 57.0301V40.5699L22.4237 32.3398V38.8827C22.4237 43.8619 25.7159 51.2278 34.7695 51.2278C43.8231 51.2278 47.1153 43.8619 47.1153 38.8827H75.9221V42.9977ZM77.1155 23.6159L70.1196 30.6526H38.8847V38.8827C38.8847 40.7345 38.1028 42.9977 34.7695 42.9977C31.4361 42.9977 30.6542 40.7345 30.6542 38.8827V26.5376C30.6542 24.6446 31.3538 18.3075 38.8847 18.3075H52.9178L62.3006 8.92514C63.5763 7.73178 64.3171 8.43134 64.7698 8.88399L77.0744 21.1468C78.2678 22.4225 77.5682 23.1632 77.1155 23.6159Z" fill="white"/>
</svg>
