<svg width="52" height="52" viewBox="0 0 52 52" fill="none" xmlns="http://www.w3.org/2000/svg">
<g filter="url(#filter0_d_267_76)">
<rect x="4" width="44" height="44" rx="10" fill="#033325"/>
</g>
<g filter="url(#filter1_i_267_76)">
<path d="M20.2857 27.1644V8L22.3571 9.06469L24.4286 8L26.4961 9.06469L28.5915 8L30.6428 9.06469L32.7007 8L34.7675 9.06469L36.8571 8L38.9292 9.06469L40.9999 8V22.9056" stroke="#F4FFFC" stroke-width="1.5" stroke-linejoin="round"/>
<path d="M41 22.9053V30.3581C41 31.7699 40.4544 33.124 39.4832 34.1223C38.512 35.1207 37.1949 35.6815 35.8214 35.6815M35.8214 35.6815C34.448 35.6815 33.1308 35.1207 32.1596 34.1223C31.1885 33.124 30.6429 31.7699 30.6429 30.3581V27.164H13.0358C12.8994 27.1628 12.7642 27.1895 12.638 27.2425C12.5118 27.2956 12.3971 27.374 12.3007 27.4731C12.2043 27.5722 12.128 27.6901 12.0764 27.8198C12.0248 27.9495 11.9988 28.0885 12 28.2287C12 32.4875 12.4363 35.6815 17.1786 35.6815H35.8214Z" stroke="#F4FFFC" stroke-width="1.5" stroke-linejoin="round"/>
<path d="M24.4286 14.3882H36.8572M28.5715 19.7116H36.8572" stroke="#F4FFFC" stroke-width="1.5" stroke-linecap="round" stroke-linejoin="round"/>
</g>
<defs>
<filter id="filter0_d_267_76" x="0" y="0" width="52" height="52" filterUnits="userSpaceOnUse" color-interpolation-filters="sRGB">
<feFlood flood-opacity="0" result="BackgroundImageFix"/>
<feColorMatrix in="SourceAlpha" type="matrix" values="0 0 0 0 0 0 0 0 0 0 0 0 0 0 0 0 0 0 127 0" result="hardAlpha"/>
<feOffset dy="4"/>
<feGaussianBlur stdDeviation="2"/>
<feComposite in2="hardAlpha" operator="out"/>
<feColorMatrix type="matrix" values="0 0 0 0 0 0 0 0 0 0 0 0 0 0 0 0 0 0 0.25 0"/>
<feBlend mode="normal" in2="BackgroundImageFix" result="effect1_dropShadow_267_76"/>
<feBlend mode="normal" in="SourceGraphic" in2="effect1_dropShadow_267_76" result="shape"/>
</filter>
<filter id="filter1_i_267_76" x="11.25" y="7.25" width="30.5" height="33.1816" filterUnits="userSpaceOnUse" color-interpolation-filters="sRGB">
<feFlood flood-opacity="0" result="BackgroundImageFix"/>
<feBlend mode="normal" in="SourceGraphic" in2="BackgroundImageFix" result="shape"/>
<feColorMatrix in="SourceAlpha" type="matrix" values="0 0 0 0 0 0 0 0 0 0 0 0 0 0 0 0 0 0 127 0" result="hardAlpha"/>
<feOffset dy="4"/>
<feGaussianBlur stdDeviation="2"/>
<feComposite in2="hardAlpha" operator="arithmetic" k2="-1" k3="1"/>
<feColorMatrix type="matrix" values="0 0 0 0 0 0 0 0 0 0 0 0 0 0 0 0 0 0 0.25 0"/>
<feBlend mode="normal" in2="shape" result="effect1_innerShadow_267_76"/>
</filter>
</defs>
</svg>
