<svg width="25" height="25" viewBox="0 0 25 25" fill="none" xmlns="http://www.w3.org/2000/svg">
<path d="M16.0936 17.2084L12.9582 14.073C12.8436 13.9584 12.7082 13.9376 12.6353 13.9376C12.5623 13.9376 12.4269 13.9584 12.3123 14.073L9.1665 17.2188C8.81234 17.573 8.26025 18.1459 6.4165 18.1459L10.2811 22.0001C10.867 22.5853 11.6613 22.914 12.4894 22.914C13.3175 22.914 14.1118 22.5853 14.6978 22.0001L18.5728 18.1355C17.6248 18.1355 16.8332 17.948 16.0936 17.2084ZM9.1665 7.78135L12.3123 10.9272C12.3957 11.0105 12.5207 11.0626 12.6353 11.0626C12.7498 11.0626 12.8748 11.0105 12.9582 10.9272L16.0728 7.8126C16.8123 7.04177 17.6561 6.86468 18.604 6.86468L14.729 3.0001C14.1431 2.41489 13.3488 2.08618 12.5207 2.08618C11.6925 2.08618 10.8983 2.41489 10.3123 3.0001L6.44775 6.85426C8.28109 6.85426 8.84359 7.45843 9.1665 7.78135Z" fill="#F4FFFC"/>
<path d="M21.9894 10.2605L19.6457 7.90633H18.3332C17.7707 7.90633 17.2082 8.1355 16.8228 8.54175L13.6978 11.6667C13.4061 11.9584 13.0207 12.1042 12.6353 12.1042C12.2384 12.0987 11.8585 11.9422 11.5728 11.6667L8.42694 8.5105C8.0311 8.11466 7.48944 7.8855 6.91652 7.8855H5.38527L2.99985 10.2813C2.41464 10.8673 2.08594 11.6615 2.08594 12.4897C2.08594 13.3178 2.41464 14.1121 2.99985 14.698L5.38527 17.0938H6.92694C7.48944 17.0938 8.0311 16.8647 8.43735 16.4688L11.5832 13.323C11.8749 13.0313 12.2603 12.8855 12.6457 12.8855C13.0311 12.8855 13.4165 13.0313 13.7082 13.323L16.8436 16.4584C17.2394 16.8542 17.7811 17.0834 18.354 17.0834H19.6665L22.0103 14.7292C22.5979 14.1328 22.9256 13.3279 22.9217 12.4906C22.9178 11.6532 22.5826 10.8515 21.9894 10.2605Z" fill="#F4FFFC"/>
</svg>
