<svg width="21" height="17" viewBox="0 0 21 17" fill="none" xmlns="http://www.w3.org/2000/svg">
<path d="M1 8.6C1 5.01755 1 3.22585 2.1134 2.1134C3.22585 1 5.01755 1 8.6 1H12.4C15.9824 1 17.7741 1 18.8866 2.1134C20 3.22585 20 5.01755 20 8.6C20 12.1824 20 13.9741 18.8866 15.0866C17.7741 16.2 15.9824 16.2 12.4 16.2H8.6C5.01755 16.2 3.22585 16.2 2.1134 15.0866C1 13.9741 1 12.1824 1 8.6Z" stroke="#0C6351" stroke-width="1.5"/>
<path d="M8.6 12.4002H4.8M12.4 12.4002H10.975M1 6.7002H20" stroke="#0C6351" stroke-width="1.5" stroke-linecap="round"/>
</svg>
