<svg width="21" height="21" viewBox="0 0 21 21" fill="none" xmlns="http://www.w3.org/2000/svg">
<path d="M2.33333 21C1.69167 21 1.14217 20.7713 0.684835 20.314C0.227502 19.8567 -0.000775797 19.3076 1.98076e-06 18.6667V2.33334C1.98076e-06 1.69167 0.228669 1.14217 0.686002 0.684837C1.14333 0.227504 1.69245 -0.000773741 2.33333 4.03691e-06H8.16667C8.49722 4.03691e-06 8.7745 0.112004 8.9985 0.336004C9.2225 0.560004 9.33411 0.836893 9.33333 1.16667C9.33333 1.49723 9.22133 1.7745 8.99733 1.9985C8.77333 2.2225 8.49644 2.33411 8.16667 2.33334H2.33333V18.6667H18.6667V12.8333C18.6667 12.5028 18.7787 12.2255 19.0027 12.0015C19.2267 11.7775 19.5036 11.6659 19.8333 11.6667C20.1639 11.6667 20.4412 11.7787 20.6652 12.0027C20.8892 12.2267 21.0008 12.5036 21 12.8333V18.6667C21 19.3083 20.7713 19.8578 20.314 20.3152C19.8567 20.7725 19.3076 21.0008 18.6667 21H2.33333ZM15.1667 5.83334H12.8333C12.5028 5.83334 12.2255 5.72133 12.0015 5.49734C11.7775 5.27334 11.6659 4.99645 11.6667 4.66667C11.6667 4.33611 11.7787 4.05884 12.0027 3.83484C12.2267 3.61084 12.5036 3.49923 12.8333 3.5H15.1667V1.16667C15.1667 0.836115 15.2787 0.558837 15.5027 0.334837C15.7267 0.110837 16.0036 -0.000773741 16.3333 4.03691e-06C16.6639 4.03691e-06 16.9412 0.112004 17.1652 0.336004C17.3892 0.560004 17.5008 0.836893 17.5 1.16667V3.5H19.8333C20.1639 3.5 20.4412 3.612 20.6652 3.836C20.8892 4.06 21.0008 4.33689 21 4.66667C21 4.99722 20.888 5.2745 20.664 5.4985C20.44 5.7225 20.1631 5.83411 19.8333 5.83334H17.5V8.16667C17.5 8.49722 17.388 8.7745 17.164 8.9985C16.94 9.2225 16.6631 9.33411 16.3333 9.33333C16.0028 9.33333 15.7255 9.22133 15.5015 8.99733C15.2775 8.77333 15.1659 8.49645 15.1667 8.16667V5.83334Z" fill="#F4FFFC"/>
</svg>
