<svg width="22" height="22" viewBox="0 0 22 22" fill="none" xmlns="http://www.w3.org/2000/svg">
<path d="M11 2.00001C8.94018 1.9965 6.94204 2.7028 5.342 4.00001H7C7.26522 4.00001 7.51957 4.10537 7.70711 4.29291C7.89464 4.48044 8 4.7348 8 5.00001C8 5.26523 7.89464 5.51958 7.70711 5.70712C7.51957 5.89466 7.26522 6.00001 7 6.00001H3C2.86758 6.00002 2.73647 5.97373 2.61429 5.92267C2.49211 5.8716 2.38129 5.79678 2.28826 5.70254C2.19523 5.6083 2.12184 5.49652 2.07236 5.37369C2.02287 5.25086 1.99828 5.11942 2 4.98701V1.00001C2 0.734796 2.10536 0.480442 2.29289 0.292905C2.48043 0.105369 2.73478 1.21626e-05 3 1.21626e-05C3.26522 1.21626e-05 3.51957 0.105369 3.70711 0.292905C3.89464 0.480442 4 0.734796 4 1.00001V2.51401C5.96884 0.885472 8.44492 -0.00379322 11 1.21626e-05C17.075 1.21626e-05 22 4.92501 22 11C22 17.075 17.075 22 11 22C4.925 22 0 17.075 0 11C0 10.63 0.0179999 10.263 0.0539999 9.90101C0.0653723 9.76907 0.102839 9.6407 0.164226 9.52335C0.225612 9.40601 0.309695 9.30203 0.411594 9.21744C0.513494 9.13285 0.631179 9.06935 0.75782 9.03062C0.88446 8.99188 1.01753 8.97869 1.14931 8.9918C1.2811 9.00491 1.40896 9.04407 1.52549 9.107C1.64201 9.16993 1.74488 9.25537 1.82811 9.35838C1.91134 9.46139 1.97329 9.5799 2.01035 9.70704C2.04741 9.83418 2.05885 9.96742 2.044 10.099C1.86196 11.9083 2.23225 13.7303 3.10611 15.325C3.97996 16.9197 5.31639 18.2123 6.93933 19.0325C8.56228 19.8527 10.3956 20.162 12.1978 19.9198C14.0001 19.6775 15.6866 18.895 17.0353 17.6753C18.3841 16.4557 19.3317 14.856 19.7534 13.0872C20.1751 11.3183 20.0511 9.46322 19.3978 7.76622C18.7444 6.06923 17.5923 4.60996 16.0932 3.58065C14.5941 2.55133 12.8184 2.00026 11 2.00001ZM12 5.00001C12 4.7348 11.8946 4.48044 11.7071 4.29291C11.5196 4.10537 11.2652 4.00001 11 4.00001C10.7348 4.00001 10.4804 4.10537 10.2929 4.29291C10.1054 4.48044 10 4.7348 10 5.00001V11C10 11.2652 10.1054 11.5196 10.2929 11.7071C10.4804 11.8947 10.7348 12 11 12H13.5C13.7652 12 14.0196 11.8947 14.2071 11.7071C14.3946 11.5196 14.5 11.2652 14.5 11C14.5 10.7348 14.3946 10.4804 14.2071 10.2929C14.0196 10.1054 13.7652 10 13.5 10H12V5.00001Z" fill="white"/>
</svg>
